<?xml version="1.0" standalone="no"?><!-- Generator: Gravit.io --><svg xmlns="http://www.w3.org/2000/svg" xmlns:xlink="http://www.w3.org/1999/xlink" style="isolation:isolate" viewBox="0 0 20 20" width="20" height="20"><defs><clipPath id="_clipPath_8uxOuWnCEzvhxJ14Y9u47meZiF1z8hOF"><rect width="20" height="20"/></clipPath></defs><g clip-path="url(#_clipPath_8uxOuWnCEzvhxJ14Y9u47meZiF1z8hOF)"><rect width="20" height="20" style="fill:rgb(0,0,0)" fill-opacity="0"/><g><g><path d=" M 19.134 9.339 L 2.956 9.339 L 6.816 5.478 C 7.154 5.14 7.154 4.592 6.816 4.254 C 6.478 3.915 5.93 3.915 5.592 4.254 L 0.254 9.592 C -0.085 9.93 -0.085 10.478 0.254 10.816 L 5.592 16.155 C 5.761 16.324 5.983 16.409 6.204 16.409 C 6.426 16.409 6.647 16.324 6.816 16.155 C 7.154 15.817 7.154 15.269 6.816 14.931 L 2.956 11.07 L 19.134 11.07 C 19.612 11.07 20 10.682 20 10.204 C 20 9.726 19.612 9.339 19.134 9.339 Z " fill="rgb(255,255,255)"/></g></g></g></svg>