<?xml version="1.0" standalone="no"?><!-- Generator: Gravit.io --><svg xmlns="http://www.w3.org/2000/svg" xmlns:xlink="http://www.w3.org/1999/xlink" style="isolation:isolate" viewBox="0 0 20 20" width="20" height="20"><defs><clipPath id="_clipPath_r2qFoqUQEmSQa7og66dvBfZNy2Ao10kl"><rect width="20" height="20"/></clipPath></defs><g clip-path="url(#_clipPath_r2qFoqUQEmSQa7og66dvBfZNy2Ao10kl)"><rect width="20" height="20" style="fill:rgb(0,0,0)" fill-opacity="0"/><g><g><path d=" M 19.629 6.371 C 19.382 6.124 19.088 6 18.75 6 L 1.25 6 C 0.911 6 0.618 6.124 0.371 6.371 C 0.124 6.619 0 6.912 0 7.25 C 0 7.589 0.124 7.882 0.371 8.129 L 9.121 16.879 C 9.369 17.126 9.662 17.25 10 17.25 C 10.338 17.25 10.632 17.126 10.879 16.879 L 19.629 8.129 C 19.876 7.882 20 7.589 20 7.25 C 20 6.912 19.876 6.619 19.629 6.371 Z " fill="rgb(0,0,0)"/></g></g></g></svg>