<?xml version="1.0" standalone="no"?><!-- Generator: Gravit.io --><svg xmlns="http://www.w3.org/2000/svg" xmlns:xlink="http://www.w3.org/1999/xlink" style="isolation:isolate" viewBox="0 0 20 20" width="20" height="20"><defs><clipPath id="_clipPath_n0udMUm9m4lpgNlmrcHIlom9PkejqXmA"><rect width="20" height="20"/></clipPath></defs><g clip-path="url(#_clipPath_n0udMUm9m4lpgNlmrcHIlom9PkejqXmA)"><rect width="20" height="20" style="fill:rgb(0,0,0)" fill-opacity="0"/><path d=" M 0.862 10.915 C 0.718 10.771 0.646 10.555 0.646 10.412 C 0.646 10.268 0.718 10.052 0.862 9.908 L 1.869 8.9 C 2.157 8.613 2.588 8.613 2.876 8.9 L 2.948 8.972 L 6.906 13.218 C 7.05 13.362 7.266 13.362 7.41 13.218 L 17.052 3.216 L 17.124 3.216 L 17.124 3.216 C 17.412 2.928 17.843 2.928 18.131 3.216 L 19.138 4.223 C 19.426 4.511 19.426 4.943 19.138 5.231 L 19.138 5.231 L 7.625 17.175 C 7.482 17.319 7.338 17.391 7.122 17.391 C 6.906 17.391 6.762 17.319 6.618 17.175 L 1.005 11.131 L 0.862 10.915 Z " fill="rgb(247,148,29)"/></g></svg>