<?xml version="1.0" standalone="no"?><!-- Generator: Gravit.io --><svg xmlns="http://www.w3.org/2000/svg" xmlns:xlink="http://www.w3.org/1999/xlink" style="isolation:isolate" viewBox="0 0 20 20" width="20" height="20"><defs><clipPath id="_clipPath_7vH3pPgmw2fq8WoTJkYjjYPQOpE1mATM"><rect width="20" height="20"/></clipPath></defs><g clip-path="url(#_clipPath_7vH3pPgmw2fq8WoTJkYjjYPQOpE1mATM)"><rect width="20" height="20" style="fill:rgb(0,0,0)" fill-opacity="0"/><g><g><g><path d=" M 10 0 C 4.486 0 0 4.486 0 10 C 0 15.514 4.486 20 10 20 C 15.514 20 20 15.514 20 10 C 20 4.486 15.514 0 10 0 Z  M 10 18.769 C 5.165 18.769 1.231 14.835 1.231 10 C 1.231 5.165 5.165 1.231 10 1.231 C 14.835 1.231 18.769 5.165 18.769 10 C 18.769 14.835 14.835 18.769 10 18.769 Z " fill="rgb(32,170,225)"/><circle vector-effect="non-scaling-stroke" cx="9.5" cy="9.5" r="9.5" fill="rgb(32,170,225)"/><circle vector-effect="non-scaling-stroke" cx="10" cy="5.485384615384615" r="1.5146153846153858" fill="rgb(255,255,255)"/><path d=" M 10 8 C 9.546 8 9.178 8.368 9.178 8.822 L 9.178 15.812 C 9.178 16.266 9.546 16.634 10 16.634 C 10.454 16.634 10.822 16.266 10.822 15.812 L 10.822 8.822 C 10.822 8.368 10.454 8 10 8 Z " fill="rgb(255,255,255)"/></g></g></g></g></svg>